<svg xmlns="http://www.w3.org/2000/svg" xmlns:xlink="http://www.w3.org/1999/xlink" width="500" zoomAndPan="magnify" viewBox="0 0 375 374.999991" height="500" preserveAspectRatio="xMidYMid meet" version="1.0"><defs><clipPath id="d6314e1539"><path d="M 63.214844 14 L 297.964844 14 L 297.964844 361 L 63.214844 361 Z M 63.214844 14 " clip-rule="nonzero"/></clipPath><clipPath id="bbec99c31b"><path d="M 208.457031 171.320312 L 185.539062 158.109375 L 210.878906 143.515625 L 233.796875 156.726562 L 282.121094 184.601562 C 290.914062 189.996094 294.375 201.0625 290.082031 210.539062 C 294.652344 205.90625 297.214844 199.820312 297.628906 193.59375 C 297.90625 189.71875 297.28125 185.777344 295.828125 182.042969 C 293.613281 176.09375 289.390625 171.113281 283.4375 167.722656 L 249.097656 147.871094 L 214.6875 128.019531 L 210.808594 125.808594 L 206.933594 128.019531 L 166.222656 151.46875 L 154.730469 158.109375 L 166.222656 164.75 L 192.945312 180.175781 L 256.574219 216.902344 L 164.628906 269.957031 C 156.945312 274.382812 149.605469 276.941406 140.882812 278.1875 C 140.328125 278.257812 139.84375 278.394531 139.289062 278.53125 C 132.296875 280.332031 128.074219 287.664062 130.011719 294.855469 C 131.953125 301.980469 139.289062 306.199219 146.421875 304.332031 C 149.328125 303.570312 151.753906 301.910156 153.484375 299.699219 C 158.953125 292.710938 164.839844 287.664062 172.523438 283.238281 L 272.152344 225.757812 L 274.851562 227.277344 C 277.273438 228.664062 279.210938 230.597656 280.457031 232.742188 C 281.703125 234.886719 282.398438 237.515625 282.398438 240.351562 C 282.398438 243.1875 281.703125 245.746094 280.457031 247.960938 C 279.144531 250.171875 277.273438 252.042969 274.851562 253.425781 L 149.882812 325.429688 C 142.199219 329.855469 134.859375 332.414062 126.136719 333.660156 C 125.582031 333.730469 125.097656 333.867188 124.542969 334.007812 C 117.414062 335.941406 113.191406 343.273438 115.058594 350.398438 C 116.996094 357.523438 124.335938 361.742188 131.46875 359.875 C 134.375 359.113281 136.796875 357.453125 138.527344 355.242188 C 144 348.253906 149.882812 343.207031 157.570312 338.777344 L 282.464844 266.703125 C 287.3125 263.9375 291.121094 260.132812 293.683594 255.636719 C 296.3125 251.074219 297.699219 245.886719 297.699219 240.421875 C 297.699219 234.886719 296.3125 229.769531 293.683594 225.203125 C 291.050781 220.636719 287.242188 216.835938 282.464844 214.066406 L 275.957031 210.332031 L 272.152344 208.117188 Z M 152.859375 203.414062 L 89.234375 166.6875 L 85.425781 164.472656 L 78.917969 160.738281 C 74.140625 157.972656 70.332031 154.167969 67.703125 149.601562 C 65.070312 145.035156 63.6875 139.847656 63.6875 134.386719 C 63.6875 128.851562 65.070312 123.734375 67.703125 119.167969 C 70.332031 114.671875 74.074219 110.867188 78.917969 108.101562 L 203.746094 36.027344 C 211.433594 31.601562 217.316406 26.550781 222.785156 19.5625 C 224.519531 17.351562 226.941406 15.691406 229.847656 14.929688 C 236.980469 12.992188 244.320312 17.28125 246.257812 24.40625 C 248.195312 31.53125 243.902344 38.863281 236.773438 40.800781 C 236.21875 40.9375 235.734375 41.074219 235.179688 41.144531 C 226.386719 42.390625 219.117188 44.949219 211.433594 49.375 L 86.535156 121.3125 C 84.113281 122.695312 82.242188 124.5625 80.925781 126.777344 C 79.679688 128.921875 78.988281 131.550781 78.988281 134.386719 C 78.988281 137.222656 79.679688 139.847656 80.925781 141.992188 C 82.171875 144.136719 84.113281 146.074219 86.535156 147.457031 L 89.234375 149.046875 L 188.863281 91.570312 C 196.546875 87.140625 202.433594 82.09375 207.902344 75.105469 C 209.632812 72.894531 212.054688 71.234375 214.964844 70.472656 C 222.09375 68.535156 229.433594 72.824219 231.371094 79.949219 C 233.308594 87.074219 229.019531 94.40625 221.886719 96.34375 C 221.332031 96.480469 220.847656 96.617188 220.292969 96.6875 C 211.5 97.933594 204.230469 100.492188 196.546875 104.917969 L 104.535156 157.902344 L 168.160156 194.632812 L 194.886719 210.054688 L 206.378906 216.695312 L 194.886719 223.335938 L 154.246094 246.714844 L 150.367188 248.929688 L 146.492188 246.714844 L 112.082031 226.863281 L 77.742188 207.011719 C 71.855469 203.621094 67.632812 198.644531 65.347656 192.695312 C 63.894531 188.960938 63.273438 185.015625 63.550781 181.144531 C 63.964844 174.917969 66.59375 168.832031 71.09375 164.195312 C 66.804688 173.671875 70.265625 184.738281 79.058594 190.136719 L 127.382812 218.011719 L 150.300781 231.222656 L 175.636719 216.625 Z M 139.777344 295.339844 C 137.558594 293.613281 137.214844 290.429688 138.945312 288.214844 C 140.675781 286.003906 143.859375 285.65625 146.074219 287.386719 C 148.292969 289.117188 148.636719 292.296875 146.90625 294.511719 C 145.175781 296.722656 141.992188 297.070312 139.777344 295.339844 Z M 124.820312 350.882812 C 122.605469 349.15625 122.257812 345.972656 123.988281 343.757812 C 125.722656 341.546875 128.90625 341.199219 131.121094 342.929688 C 133.335938 344.660156 133.683594 347.839844 131.953125 350.054688 C 130.222656 352.199219 127.035156 352.613281 124.820312 350.882812 Z M 221.539062 79.394531 C 219.324219 77.667969 216.140625 78.011719 214.410156 80.226562 C 212.679688 82.4375 213.023438 85.621094 215.242188 87.351562 C 217.457031 89.078125 220.640625 88.734375 222.371094 86.519531 C 224.101562 84.304688 223.6875 81.125 221.539062 79.394531 Z M 236.425781 23.851562 C 234.210938 22.125 231.027344 22.46875 229.292969 24.683594 C 227.5625 26.894531 227.910156 30.078125 230.125 31.808594 C 232.339844 33.535156 235.527344 33.191406 237.257812 30.976562 C 238.988281 28.765625 238.640625 25.582031 236.425781 23.851562 Z M 236.425781 23.851562 " clip-rule="evenodd"/></clipPath><linearGradient x1="169.13901" gradientTransform="matrix(0.692339, 0, 0, 0.69169, 63.548885, 14.4458)" y1="-2.099975" x2="169.13901" gradientUnits="userSpaceOnUse" y2="502.099996" id="d38659667a"><stop stop-opacity="1" stop-color="rgb(30.421448%, 68.234253%, 66.481018%)" offset="0"/><stop stop-opacity="1" stop-color="rgb(30.354309%, 68.135071%, 66.48407%)" offset="0.0078125"/><stop stop-opacity="1" stop-color="rgb(30.221558%, 67.939758%, 66.490173%)" offset="0.015625"/><stop stop-opacity="1" stop-color="rgb(30.088806%, 67.74292%, 66.496277%)" offset="0.0234375"/><stop stop-opacity="1" stop-color="rgb(29.957581%, 67.546082%, 66.503906%)" offset="0.03125"/><stop stop-opacity="1" stop-color="rgb(29.824829%, 67.349243%, 66.51001%)" offset="0.0390625"/><stop stop-opacity="1" stop-color="rgb(29.692078%, 67.152405%, 66.516113%)" offset="0.046875"/><stop stop-opacity="1" stop-color="rgb(29.559326%, 66.955566%, 66.523743%)" offset="0.0546875"/><stop stop-opacity="1" stop-color="rgb(29.428101%, 66.758728%, 66.529846%)" offset="0.0625"/><stop stop-opacity="1" stop-color="rgb(29.295349%, 66.56189%, 66.53595%)" offset="0.0703125"/><stop stop-opacity="1" stop-color="rgb(29.162598%, 66.365051%, 66.542053%)" offset="0.078125"/><stop stop-opacity="1" stop-color="rgb(29.029846%, 66.169739%, 66.549683%)" offset="0.0859375"/><stop stop-opacity="1" stop-color="rgb(28.898621%, 65.9729%, 66.555786%)" offset="0.09375"/><stop stop-opacity="1" stop-color="rgb(28.765869%, 65.776062%, 66.56189%)" offset="0.101563"/><stop stop-opacity="1" stop-color="rgb(28.633118%, 65.579224%, 66.569519%)" offset="0.109375"/><stop stop-opacity="1" stop-color="rgb(28.500366%, 65.382385%, 66.575623%)" offset="0.117188"/><stop stop-opacity="1" stop-color="rgb(28.367615%, 65.185547%, 66.581726%)" offset="0.125"/><stop stop-opacity="1" stop-color="rgb(28.236389%, 64.988708%, 66.58783%)" offset="0.132813"/><stop stop-opacity="1" stop-color="rgb(28.103638%, 64.79187%, 66.595459%)" offset="0.140625"/><stop stop-opacity="1" stop-color="rgb(27.970886%, 64.595032%, 66.601562%)" offset="0.148438"/><stop stop-opacity="1" stop-color="rgb(27.838135%, 64.399719%, 66.607666%)" offset="0.15625"/><stop stop-opacity="1" stop-color="rgb(27.706909%, 64.202881%, 66.615295%)" offset="0.164063"/><stop stop-opacity="1" stop-color="rgb(27.574158%, 64.006042%, 66.621399%)" offset="0.171875"/><stop stop-opacity="1" stop-color="rgb(27.441406%, 63.809204%, 66.627502%)" offset="0.179688"/><stop stop-opacity="1" stop-color="rgb(27.308655%, 63.612366%, 66.633606%)" offset="0.1875"/><stop stop-opacity="1" stop-color="rgb(27.177429%, 63.415527%, 66.641235%)" offset="0.195313"/><stop stop-opacity="1" stop-color="rgb(27.044678%, 63.218689%, 66.647339%)" offset="0.203125"/><stop stop-opacity="1" stop-color="rgb(26.911926%, 63.021851%, 66.653442%)" offset="0.210938"/><stop stop-opacity="1" stop-color="rgb(26.779175%, 62.825012%, 66.661072%)" offset="0.21875"/><stop stop-opacity="1" stop-color="rgb(26.647949%, 62.6297%, 66.667175%)" offset="0.226563"/><stop stop-opacity="1" stop-color="rgb(26.515198%, 62.432861%, 66.673279%)" offset="0.234375"/><stop stop-opacity="1" stop-color="rgb(26.382446%, 62.236023%, 66.679382%)" offset="0.242188"/><stop stop-opacity="1" stop-color="rgb(26.249695%, 62.039185%, 66.687012%)" offset="0.25"/><stop stop-opacity="1" stop-color="rgb(26.118469%, 61.842346%, 66.693115%)" offset="0.257813"/><stop stop-opacity="1" stop-color="rgb(25.985718%, 61.645508%, 66.699219%)" offset="0.265625"/><stop stop-opacity="1" stop-color="rgb(25.852966%, 61.448669%, 66.706848%)" offset="0.273438"/><stop stop-opacity="1" stop-color="rgb(25.720215%, 61.251831%, 66.712952%)" offset="0.28125"/><stop stop-opacity="1" stop-color="rgb(25.588989%, 61.054993%, 66.719055%)" offset="0.289063"/><stop stop-opacity="1" stop-color="rgb(25.456238%, 60.85968%, 66.725159%)" offset="0.296875"/><stop stop-opacity="1" stop-color="rgb(25.323486%, 60.662842%, 66.732788%)" offset="0.304688"/><stop stop-opacity="1" stop-color="rgb(25.190735%, 60.466003%, 66.738892%)" offset="0.3125"/><stop stop-opacity="1" stop-color="rgb(25.059509%, 60.269165%, 66.744995%)" offset="0.320313"/><stop stop-opacity="1" stop-color="rgb(24.926758%, 60.072327%, 66.752625%)" offset="0.328125"/><stop stop-opacity="1" stop-color="rgb(24.794006%, 59.875488%, 66.758728%)" offset="0.335938"/><stop stop-opacity="1" stop-color="rgb(24.661255%, 59.67865%, 66.764832%)" offset="0.34375"/><stop stop-opacity="1" stop-color="rgb(24.530029%, 59.481812%, 66.770935%)" offset="0.351563"/><stop stop-opacity="1" stop-color="rgb(24.397278%, 59.284973%, 66.778564%)" offset="0.359375"/><stop stop-opacity="1" stop-color="rgb(24.264526%, 59.089661%, 66.784668%)" offset="0.367188"/><stop stop-opacity="1" stop-color="rgb(24.131775%, 58.892822%, 66.790771%)" offset="0.375"/><stop stop-opacity="1" stop-color="rgb(23.999023%, 58.695984%, 66.798401%)" offset="0.382813"/><stop stop-opacity="1" stop-color="rgb(23.867798%, 58.499146%, 66.804504%)" offset="0.390625"/><stop stop-opacity="1" stop-color="rgb(23.735046%, 58.302307%, 66.810608%)" offset="0.398438"/><stop stop-opacity="1" stop-color="rgb(23.602295%, 58.105469%, 66.816711%)" offset="0.40625"/><stop stop-opacity="1" stop-color="rgb(23.469543%, 57.90863%, 66.824341%)" offset="0.414063"/><stop stop-opacity="1" stop-color="rgb(23.338318%, 57.711792%, 66.830444%)" offset="0.421875"/><stop stop-opacity="1" stop-color="rgb(23.205566%, 57.514954%, 66.836548%)" offset="0.429688"/><stop stop-opacity="1" stop-color="rgb(23.072815%, 57.319641%, 66.844177%)" offset="0.4375"/><stop stop-opacity="1" stop-color="rgb(22.940063%, 57.122803%, 66.850281%)" offset="0.445313"/><stop stop-opacity="1" stop-color="rgb(22.808838%, 56.925964%, 66.856384%)" offset="0.453125"/><stop stop-opacity="1" stop-color="rgb(22.676086%, 56.729126%, 66.862488%)" offset="0.460938"/><stop stop-opacity="1" stop-color="rgb(22.543335%, 56.532288%, 66.870117%)" offset="0.46875"/><stop stop-opacity="1" stop-color="rgb(22.410583%, 56.335449%, 66.876221%)" offset="0.476563"/><stop stop-opacity="1" stop-color="rgb(22.279358%, 56.138611%, 66.882324%)" offset="0.484375"/><stop stop-opacity="1" stop-color="rgb(22.146606%, 55.941772%, 66.889954%)" offset="0.492188"/><stop stop-opacity="1" stop-color="rgb(22.013855%, 55.744934%, 66.896057%)" offset="0.5"/><stop stop-opacity="1" stop-color="rgb(21.881104%, 55.549622%, 66.902161%)" offset="0.507813"/><stop stop-opacity="1" stop-color="rgb(21.749878%, 55.352783%, 66.908264%)" offset="0.515625"/><stop stop-opacity="1" stop-color="rgb(21.617126%, 55.155945%, 66.915894%)" offset="0.523438"/><stop stop-opacity="1" stop-color="rgb(21.484375%, 54.959106%, 66.921997%)" offset="0.53125"/><stop stop-opacity="1" stop-color="rgb(21.351624%, 54.762268%, 66.928101%)" offset="0.539063"/><stop stop-opacity="1" stop-color="rgb(21.220398%, 54.56543%, 66.93573%)" offset="0.546875"/><stop stop-opacity="1" stop-color="rgb(21.087646%, 54.368591%, 66.941833%)" offset="0.554688"/><stop stop-opacity="1" stop-color="rgb(20.954895%, 54.171753%, 66.947937%)" offset="0.5625"/><stop stop-opacity="1" stop-color="rgb(20.822144%, 53.974915%, 66.954041%)" offset="0.570313"/><stop stop-opacity="1" stop-color="rgb(20.690918%, 53.779602%, 66.96167%)" offset="0.578125"/><stop stop-opacity="1" stop-color="rgb(20.558167%, 53.582764%, 66.967773%)" offset="0.585938"/><stop stop-opacity="1" stop-color="rgb(20.425415%, 53.385925%, 66.973877%)" offset="0.59375"/><stop stop-opacity="1" stop-color="rgb(20.292664%, 53.189087%, 66.981506%)" offset="0.601563"/><stop stop-opacity="1" stop-color="rgb(20.159912%, 52.992249%, 66.98761%)" offset="0.609375"/><stop stop-opacity="1" stop-color="rgb(20.028687%, 52.79541%, 66.993713%)" offset="0.617188"/><stop stop-opacity="1" stop-color="rgb(19.895935%, 52.598572%, 66.999817%)" offset="0.625"/><stop stop-opacity="1" stop-color="rgb(19.763184%, 52.401733%, 67.007446%)" offset="0.632813"/><stop stop-opacity="1" stop-color="rgb(19.630432%, 52.204895%, 67.01355%)" offset="0.640625"/><stop stop-opacity="1" stop-color="rgb(19.499207%, 52.009583%, 67.019653%)" offset="0.648438"/><stop stop-opacity="1" stop-color="rgb(19.366455%, 51.812744%, 67.027283%)" offset="0.65625"/><stop stop-opacity="1" stop-color="rgb(19.233704%, 51.615906%, 67.033386%)" offset="0.664063"/><stop stop-opacity="1" stop-color="rgb(19.100952%, 51.419067%, 67.03949%)" offset="0.671875"/><stop stop-opacity="1" stop-color="rgb(18.969727%, 51.222229%, 67.045593%)" offset="0.679688"/><stop stop-opacity="1" stop-color="rgb(18.836975%, 51.025391%, 67.053223%)" offset="0.6875"/><stop stop-opacity="1" stop-color="rgb(18.704224%, 50.828552%, 67.059326%)" offset="0.695313"/><stop stop-opacity="1" stop-color="rgb(18.571472%, 50.631714%, 67.06543%)" offset="0.703125"/><stop stop-opacity="1" stop-color="rgb(18.440247%, 50.434875%, 67.073059%)" offset="0.710938"/><stop stop-opacity="1" stop-color="rgb(18.307495%, 50.239563%, 67.079163%)" offset="0.71875"/><stop stop-opacity="1" stop-color="rgb(18.174744%, 50.042725%, 67.085266%)" offset="0.726563"/><stop stop-opacity="1" stop-color="rgb(18.041992%, 49.845886%, 67.09137%)" offset="0.734375"/><stop stop-opacity="1" stop-color="rgb(17.910767%, 49.649048%, 67.098999%)" offset="0.742188"/><stop stop-opacity="1" stop-color="rgb(17.778015%, 49.452209%, 67.105103%)" offset="0.75"/><stop stop-opacity="1" stop-color="rgb(17.645264%, 49.255371%, 67.111206%)" offset="0.757813"/><stop stop-opacity="1" stop-color="rgb(17.512512%, 49.058533%, 67.11731%)" offset="0.765625"/><stop stop-opacity="1" stop-color="rgb(17.381287%, 48.861694%, 67.124939%)" offset="0.773438"/><stop stop-opacity="1" stop-color="rgb(17.248535%, 48.666382%, 67.131042%)" offset="0.78125"/><stop stop-opacity="1" stop-color="rgb(17.115784%, 48.469543%, 67.137146%)" offset="0.789063"/><stop stop-opacity="1" stop-color="rgb(16.983032%, 48.272705%, 67.144775%)" offset="0.796875"/><stop stop-opacity="1" stop-color="rgb(16.851807%, 48.075867%, 67.150879%)" offset="0.804688"/><stop stop-opacity="1" stop-color="rgb(16.719055%, 47.879028%, 67.156982%)" offset="0.8125"/><stop stop-opacity="1" stop-color="rgb(16.586304%, 47.68219%, 67.163086%)" offset="0.820313"/><stop stop-opacity="1" stop-color="rgb(16.453552%, 47.485352%, 67.170715%)" offset="0.828125"/><stop stop-opacity="1" stop-color="rgb(16.320801%, 47.288513%, 67.176819%)" offset="0.835938"/><stop stop-opacity="1" stop-color="rgb(16.189575%, 47.091675%, 67.182922%)" offset="0.84375"/><stop stop-opacity="1" stop-color="rgb(16.056824%, 46.896362%, 67.190552%)" offset="0.851563"/><stop stop-opacity="1" stop-color="rgb(15.924072%, 46.699524%, 67.196655%)" offset="0.859375"/><stop stop-opacity="1" stop-color="rgb(15.791321%, 46.502686%, 67.202759%)" offset="0.867188"/><stop stop-opacity="1" stop-color="rgb(15.660095%, 46.305847%, 67.208862%)" offset="0.875"/><stop stop-opacity="1" stop-color="rgb(15.527344%, 46.109009%, 67.216492%)" offset="0.882813"/><stop stop-opacity="1" stop-color="rgb(15.394592%, 45.91217%, 67.222595%)" offset="0.890625"/><stop stop-opacity="1" stop-color="rgb(15.261841%, 45.715332%, 67.228699%)" offset="0.898438"/><stop stop-opacity="1" stop-color="rgb(15.130615%, 45.518494%, 67.236328%)" offset="0.90625"/><stop stop-opacity="1" stop-color="rgb(14.997864%, 45.321655%, 67.242432%)" offset="0.914063"/><stop stop-opacity="1" stop-color="rgb(14.865112%, 45.126343%, 67.248535%)" offset="0.921875"/><stop stop-opacity="1" stop-color="rgb(14.732361%, 44.929504%, 67.254639%)" offset="0.929688"/><stop stop-opacity="1" stop-color="rgb(14.601135%, 44.732666%, 67.262268%)" offset="0.9375"/><stop stop-opacity="1" stop-color="rgb(14.468384%, 44.535828%, 67.268372%)" offset="0.945313"/><stop stop-opacity="1" stop-color="rgb(14.335632%, 44.338989%, 67.274475%)" offset="0.953125"/><stop stop-opacity="1" stop-color="rgb(14.202881%, 44.142151%, 67.282104%)" offset="0.960938"/><stop stop-opacity="1" stop-color="rgb(14.071655%, 43.945312%, 67.288208%)" offset="0.96875"/><stop stop-opacity="1" stop-color="rgb(13.938904%, 43.748474%, 67.294312%)" offset="0.976563"/><stop stop-opacity="1" stop-color="rgb(13.806152%, 43.551636%, 67.300415%)" offset="0.984375"/><stop stop-opacity="1" stop-color="rgb(13.673401%, 43.356323%, 67.308044%)" offset="0.992188"/><stop stop-opacity="1" stop-color="rgb(13.542175%, 43.159485%, 67.314148%)" offset="1"/></linearGradient></defs><rect x="-37.5" width="450" fill="#ffffff" y="-37.499999" height="449.999989" fill-opacity="1"/><rect x="-37.5" width="450" fill="#000000" y="-37.499999" height="449.999989" fill-opacity="1"/><g clip-path="url(#d6314e1539)"><g clip-path="url(#bbec99c31b)"><path fill="url(#d38659667a)" d="M 63.273438 12.992188 L 63.273438 361.742188 L 297.90625 361.742188 L 297.90625 12.992188 Z M 63.273438 12.992188 " fill-rule="nonzero"/></g></g></svg>