<svg xmlns="http://www.w3.org/2000/svg" width="390" viewBox="0 0 292.5 375" height="500" version="1.0"><defs><clipPath id="a"><path d="M145 4.379h117.758V154H145zm0 0"/></clipPath><clipPath id="b"><path d="M28.406 4.379H146V275H28.406zm0 0"/></clipPath><clipPath id="c"><path d="M28.406 221H146v149.504H28.406zm0 0"/></clipPath><clipPath id="d"><path d="M145 100h117.758v270.504H145zm0 0"/></clipPath></defs><g clip-path="url(#a)"><path d="M145.598 46.602l80.601 46.53v39.653l36.52 21.082v-81.82L145.598 4.426v42.176"/></g><g clip-path="url(#b)"><path d="M28.48 72.047v135.242l117.118 67.617v-42.172L65 186.2V93.133l80.598-46.531V4.426L28.48 72.046"/></g><g clip-path="url(#c)"><path d="M65 281.965v-39.652l-36.52-21.086v81.824l117.118 67.62v-42.175L65 281.965"/></g><g clip-path="url(#d)"><path d="M226.2 188.898v93.067l-80.602 46.531v42.176l117.12-67.621V167.809l-117.12-67.618v42.172l80.601 46.535"/></g></svg>