<svg xmlns="http://www.w3.org/2000/svg" width="390" viewBox="0 0 292.5 375" height="500" version="1.0"><defs><clipPath id="a"><path d="M20.121 1h251.57v373H20.121zm0 0"/></clipPath><clipPath id="b"><path d="M175.77 170.273l-24.56-14.18 27.157-15.667 24.559 14.183 51.785 29.922a21.994 21.994 0 018.531 27.844c4.899-4.977 7.645-11.512 8.09-18.191.297-4.16-.371-8.391-1.93-12.403-2.375-6.383-6.902-11.73-13.28-15.367l-36.802-21.309-36.875-21.308-4.152-2.379-4.156 2.379-43.625 25.168-12.317 7.129 12.317 7.129 28.636 16.554 68.184 39.426-98.527 56.95c-8.235 4.753-16.098 7.5-25.45 8.835-.593.075-1.109.223-1.703.371-7.496 1.93-12.02 9.801-9.945 17.524 2.078 7.648 9.945 12.176 17.586 10.172a14.05 14.05 0 007.566-4.977c5.864-7.496 12.168-12.918 20.403-17.672l106.765-61.699 2.895 1.633c2.594 1.488 4.672 3.566 6.008 5.867 1.336 2.3 2.078 5.121 2.078 8.168 0 3.043-.742 5.79-2.078 8.168-1.41 2.375-3.414 4.379-6.008 5.863L113.004 335.7c-8.238 4.754-16.102 7.5-25.45 8.836-.593.074-1.113.223-1.706.371-7.641 2.078-12.168 9.95-10.164 17.598 2.078 7.648 9.941 12.176 17.582 10.172a14.06 14.06 0 007.57-4.977c5.86-7.496 12.168-12.918 20.402-17.668l133.844-77.367c5.195-2.973 9.273-7.055 12.02-11.883 2.82-4.898 4.304-10.469 4.304-16.332 0-5.941-1.484-11.433-4.304-16.336-2.82-4.898-6.899-8.984-12.02-11.953l-6.973-4.008-4.082-2.379zm-59.579 34.454L48.008 165.3l-4.078-2.38-6.977-4.007c-5.117-2.969-9.2-7.055-12.02-11.953-2.816-4.902-4.3-10.469-4.3-16.336 0-5.938 1.484-11.434 4.3-16.332 2.82-4.828 6.829-8.91 12.02-11.883l133.77-77.367c8.238-4.75 14.543-10.172 20.406-17.668a14.035 14.035 0 017.566-4.977c7.64-2.078 15.508 2.524 17.582 10.172 2.078 7.649-2.52 15.52-10.164 17.598-.593.148-1.113.297-1.707.371-9.422 1.336-17.21 4.082-25.445 8.836l-133.844 77.22c-2.597 1.484-4.601 3.488-6.012 5.863-1.335 2.305-2.078 5.125-2.078 8.168 0 3.047.743 5.867 2.078 8.168 1.336 2.3 3.415 4.379 6.012 5.867l2.89 1.707 106.766-61.699c8.235-4.754 14.543-10.176 20.403-17.672a14.064 14.064 0 017.566-4.976c7.645-2.079 15.508 2.523 17.586 10.171 2.078 7.649-2.523 15.52-10.164 17.598-.594.148-1.113.297-1.707.371-9.422 1.336-17.215 4.082-25.45 8.836l-98.6 56.875 68.183 39.426 28.637 16.555 12.316 7.128-12.316 7.13-43.551 25.093-4.153 2.379-4.156-2.379-36.875-21.308-36.8-21.31c-6.305-3.636-10.833-8.983-13.278-15.366-1.559-4.012-2.227-8.242-1.93-12.403a29.026 29.026 0 018.086-18.191 21.995 21.995 0 008.532 27.844L88.89 220.39l24.558 14.183 27.153-15.668zm-14.02 98.675c-2.374-1.855-2.745-5.273-.89-7.648 1.852-2.375 5.266-2.746 7.64-.89 2.376 1.855 2.747 5.269.891 7.648-1.855 2.375-5.269 2.746-7.64.89zm-16.026 59.621c-2.375-1.855-2.747-5.273-.891-7.648 1.855-2.375 5.27-2.746 7.64-.89 2.376 1.855 2.747 5.273.891 7.648-1.855 2.3-5.265 2.746-7.64.89zM189.793 71.598c-2.375-1.856-5.79-1.485-7.645.89-1.851 2.38-1.48 5.793.891 7.649 2.375 1.855 5.79 1.484 7.645-.89 1.855-2.376 1.41-5.794-.891-7.65zm15.95-59.621c-2.372-1.856-5.786-1.485-7.641.89-1.856 2.375-1.485 5.793.89 7.649 2.375 1.855 5.785 1.484 7.64-.891 1.856-2.375 1.485-5.793-.89-7.648zm0 0" clip-rule="evenodd"/></clipPath><linearGradient x1="169.139" gradientTransform="matrix(.74193 0 0 .74248 20.483 1.88)" y1="-2.1" x2="169.139" gradientUnits="userSpaceOnUse" y2="502.1" id="c"><stop offset="0"/><stop offset=".008"/><stop offset=".016"/></linearGradient></defs><g clip-path="url(#a)"><g clip-path="url(#b)"><path fill="url(#c)" d="M20.188.32v374.36h251.44V.32zm0 0"/></g></g></svg>