<svg xmlns="http://www.w3.org/2000/svg" xmlns:xlink="http://www.w3.org/1999/xlink" width="390" zoomAndPan="magnify" viewBox="0 0 292.5 374.999991" height="500" preserveAspectRatio="xMidYMid meet" version="1.0"><defs><clipPath id="1677d02035"><path d="M 20.121094 1 L 271.691406 1 L 271.691406 374 L 20.121094 374 Z M 20.121094 1 " clip-rule="nonzero"/></clipPath><clipPath id="e951fd24c6"><path d="M 175.769531 170.273438 L 151.210938 156.09375 L 178.367188 140.425781 L 202.925781 154.609375 L 254.710938 184.53125 C 264.132812 190.320312 267.84375 202.199219 263.242188 212.375 C 268.140625 207.398438 270.886719 200.863281 271.332031 194.183594 C 271.628906 190.023438 270.960938 185.792969 269.402344 181.78125 C 267.027344 175.398438 262.5 170.050781 256.121094 166.414062 L 219.320312 145.105469 L 182.445312 123.796875 L 178.292969 121.417969 L 174.136719 123.796875 L 130.511719 148.964844 L 118.195312 156.09375 L 130.511719 163.222656 L 159.148438 179.777344 L 227.332031 219.203125 L 128.804688 276.152344 C 120.570312 280.90625 112.707031 283.652344 103.355469 284.988281 C 102.761719 285.0625 102.246094 285.210938 101.652344 285.359375 C 94.15625 287.289062 89.632812 295.160156 91.707031 302.882812 C 93.785156 310.53125 101.652344 315.058594 109.292969 313.054688 C 112.410156 312.238281 115.003906 310.457031 116.859375 308.078125 C 122.722656 300.582031 129.027344 295.160156 137.261719 290.40625 L 244.027344 228.707031 L 246.921875 230.339844 C 249.515625 231.828125 251.59375 233.90625 252.929688 236.207031 C 254.265625 238.507812 255.007812 241.328125 255.007812 244.375 C 255.007812 247.417969 254.265625 250.164062 252.929688 252.542969 C 251.519531 254.917969 249.515625 256.921875 246.921875 258.40625 L 113.003906 335.699219 C 104.765625 340.453125 96.902344 343.199219 87.554688 344.535156 C 86.960938 344.609375 86.441406 344.757812 85.847656 344.90625 C 78.207031 346.984375 73.679688 354.855469 75.683594 362.503906 C 77.761719 370.152344 85.625 374.679688 93.265625 372.675781 C 96.382812 371.859375 98.980469 370.078125 100.835938 367.699219 C 106.695312 360.203125 113.003906 354.78125 121.238281 350.03125 L 255.082031 272.664062 C 260.277344 269.691406 264.355469 265.609375 267.101562 260.78125 C 269.921875 255.882812 271.40625 250.3125 271.40625 244.449219 C 271.40625 238.507812 269.921875 233.015625 267.101562 228.113281 C 264.28125 223.214844 260.203125 219.128906 255.082031 216.160156 L 248.109375 212.152344 L 244.027344 209.773438 Z M 116.191406 204.726562 L 48.007812 165.300781 L 43.929688 162.921875 L 36.953125 158.914062 C 31.835938 155.945312 27.753906 151.859375 24.933594 146.960938 C 22.117188 142.058594 20.632812 136.492188 20.632812 130.625 C 20.632812 124.6875 22.117188 119.191406 24.933594 114.292969 C 27.753906 109.464844 31.761719 105.382812 36.953125 102.410156 L 170.722656 25.042969 C 178.960938 20.292969 185.265625 14.871094 191.128906 7.375 C 192.980469 4.996094 195.578125 3.214844 198.695312 2.398438 C 206.335938 0.320312 214.203125 4.921875 216.277344 12.570312 C 218.355469 20.21875 213.757812 28.089844 206.113281 30.167969 C 205.519531 30.316406 205 30.464844 204.40625 30.539062 C 194.984375 31.875 187.195312 34.621094 178.960938 39.375 L 45.117188 116.59375 C 42.519531 118.078125 40.515625 120.082031 39.105469 122.457031 C 37.769531 124.761719 37.027344 127.582031 37.027344 130.625 C 37.027344 133.671875 37.769531 136.492188 39.105469 138.792969 C 40.441406 141.09375 42.519531 143.171875 45.117188 144.660156 L 48.007812 146.367188 L 154.773438 84.667969 C 163.007812 79.914062 169.316406 74.492188 175.175781 66.996094 C 177.03125 64.617188 179.628906 62.835938 182.742188 62.019531 C 190.386719 59.941406 198.25 64.542969 200.328125 72.191406 C 202.40625 79.839844 197.804688 87.710938 190.164062 89.789062 C 189.570312 89.9375 189.050781 90.085938 188.457031 90.160156 C 179.035156 91.496094 171.242188 94.242188 163.007812 98.996094 L 64.40625 155.871094 L 132.589844 195.296875 L 161.226562 211.851562 L 173.542969 218.980469 L 161.226562 226.109375 L 117.675781 251.203125 L 113.523438 253.582031 L 109.367188 251.203125 L 72.492188 229.894531 L 35.691406 208.585938 C 29.386719 204.949219 24.859375 199.601562 22.414062 193.21875 C 20.855469 189.207031 20.1875 184.976562 20.484375 180.816406 C 20.929688 174.136719 23.746094 167.601562 28.570312 162.625 C 23.96875 172.796875 27.679688 184.679688 37.101562 190.46875 L 88.890625 220.390625 L 113.449219 234.574219 L 140.601562 218.90625 Z M 102.171875 303.402344 C 99.796875 301.546875 99.425781 298.128906 101.28125 295.753906 C 103.132812 293.378906 106.546875 293.007812 108.921875 294.863281 C 111.296875 296.71875 111.667969 300.132812 109.8125 302.511719 C 107.957031 304.886719 104.542969 305.257812 102.171875 303.402344 Z M 86.144531 363.023438 C 83.769531 361.167969 83.398438 357.75 85.253906 355.375 C 87.109375 353 90.523438 352.628906 92.894531 354.484375 C 95.269531 356.339844 95.640625 359.757812 93.785156 362.132812 C 91.929688 364.433594 88.519531 364.878906 86.144531 363.023438 Z M 189.792969 71.597656 C 187.417969 69.742188 184.003906 70.113281 182.148438 72.488281 C 180.296875 74.867188 180.667969 78.28125 183.039062 80.136719 C 185.414062 81.992188 188.828125 81.621094 190.683594 79.246094 C 192.539062 76.871094 192.09375 73.453125 189.792969 71.597656 Z M 205.742188 11.976562 C 203.371094 10.121094 199.957031 10.492188 198.101562 12.867188 C 196.246094 15.242188 196.617188 18.660156 198.992188 20.515625 C 201.367188 22.371094 204.777344 22 206.632812 19.625 C 208.488281 17.25 208.117188 13.832031 205.742188 11.976562 Z M 205.742188 11.976562 " clip-rule="evenodd"/></clipPath><linearGradient x1="169.13901" gradientTransform="matrix(0.741931, 0, 0, 0.742483, 20.483365, 1.879186)" y1="-2.100011" x2="169.13901" gradientUnits="userSpaceOnUse" y2="502.099989" id="501f8732a0"><stop stop-opacity="1" stop-color="#000" offset="0"/><stop stop-opacity="1" stop-color="#000" offset="0.0078125"/><stop stop-opacity="1" stop-color="#000" offset="0.015625"/></linearGradient></defs><g clip-path="url(#1677d02035)"><g clip-path="url(#e951fd24c6)"><path fill="url(#501f8732a0)" d="M 20.1875 0.320312 L 20.1875 374.679688 L 271.628906 374.679688 L 271.628906 0.320312 Z M 20.1875 0.320312 " fill-rule="nonzero"/></g></g></svg>